<?xml version="1.0" standalone="no"?>
<!DOCTYPE svg PUBLIC "-//W3C//DTD SVG 20010904//EN"
 "http://www.w3.org/TR/2001/REC-SVG-20010904/DTD/svg10.dtd">
<svg version="1.0" xmlns="http://www.w3.org/2000/svg"
 width="200.000000pt" height="200.000000pt" viewBox="0 0 200.000000 200.000000"
 preserveAspectRatio="xMidYMid meet">

<g transform="translate(0.000000,200.000000) scale(0.100000,-0.100000)"
fill="#2196f3" stroke="none">
<path d="M753 1837 l-243 -140 0 -286 1 -286 234 -134 235 -134 0 -268 0 -267
-202 -118 c-112 -64 -215 -124 -229 -132 -26 -15 -32 -12 -258 118 l-231 132
2 270 3 270 125 72 c69 40 161 94 205 119 55 32 75 48 64 52 -10 4 -93 -38
-220 -112 l-204 -118 0 -284 0 -284 240 -138 c132 -77 243 -139 247 -139 4 0
105 57 224 126 120 69 228 131 241 137 l23 10 0 276 0 277 229 132 c127 72
233 132 237 132 4 0 110 -59 235 -131 l229 -132 0 -266 0 -267 -231 -133
c-127 -73 -237 -130 -244 -127 -7 2 -100 55 -205 115 -105 61 -193 111 -196
111 -2 0 -4 -6 -4 -13 0 -7 93 -66 206 -131 159 -92 209 -117 224 -110 10 5
120 67 244 139 l226 130 0 285 0 286 -238 137 c-131 75 -243 137 -249 137 -6
0 -86 -44 -179 -98 -93 -54 -198 -115 -234 -134 l-65 -36 -233 135 -232 135 2
265 3 264 231 133 230 133 230 -132 229 -133 3 -237 c2 -182 5 -236 15 -232 9
3 12 62 12 243 l0 239 -220 128 c-121 70 -231 134 -245 141 -24 13 -39 5 -267
-127z"/>
<path d="M783 1772 l-203 -117 0 -242 0 -241 33 -20 c17 -10 111 -65 208 -121
l177 -101 168 96 c93 53 188 110 212 126 l42 29 -2 237 -3 237 -204 117 c-111
65 -208 118 -215 117 -6 0 -102 -53 -213 -117z m257 -357 l0 -215 -40 0 -40 0
0 215 0 215 40 0 40 0 0 -215z"/>
<path d="M320 970 l-205 -119 -3 -239 -2 -240 202 -118 c112 -64 205 -118 208
-120 3 -1 98 51 210 116 l205 119 3 239 2 240 -177 102 c-98 57 -192 111 -208
121 l-30 18 -205 -119z m140 -235 c34 -47 63 -85 65 -85 2 0 31 38 65 85 l61
85 50 0 49 0 0 -210 0 -210 -45 0 -44 0 -3 141 -3 141 -60 -81 c-33 -44 -65
-81 -72 -81 -6 0 -40 39 -75 88 l-63 87 -3 -147 -3 -148 -39 0 -40 0 0 210 0
210 49 0 50 0 61 -85z"/>
<path d="M1262 943 l-202 -116 2 -241 3 -241 205 -118 c112 -64 209 -115 215
-113 5 3 98 56 205 118 l195 113 3 241 2 241 -203 117 c-111 64 -207 116 -212
116 -6 0 -101 -53 -213 -117z m333 -152 c22 -10 46 -26 54 -35 13 -15 11 -20
-11 -43 -24 -24 -27 -24 -49 -10 -34 22 -98 29 -139 14 -97 -34 -111 -205 -20
-252 41 -21 118 -19 156 4 l32 19 28 -29 c27 -28 27 -29 8 -44 -79 -62 -203
-67 -286 -12 -71 47 -105 164 -76 261 15 50 84 121 130 135 54 15 130 12 173
-8z"/>
</g>
</svg>
